<?xml version="1.0" standalone="no"?>
<!DOCTYPE svg PUBLIC "-//W3C//DTD SVG 20010904//EN"
 "http://www.w3.org/TR/2001/REC-SVG-20010904/DTD/svg10.dtd">
<svg version="1.0" xmlns="http://www.w3.org/2000/svg"
 width="1752.000000pt" height="2038.000000pt" viewBox="0 0 1752.000000 2038.000000"
 preserveAspectRatio="xMidYMid meet">

<g transform="translate(0.000000,2038.000000) scale(0.100000,-0.100000)"
fill="#000000" stroke="none">
<path d="M11675 20340 c-1076 -152 -1977 -408 -2765 -786 l-155 -75 -200 97
c-237 114 -332 154 -645 267 -212 77 -687 223 -895 276 -254 64 -888 188
-1108 216 -150 19 -347 31 -347 20 0 -18 98 -174 230 -364 76 -111 156 -236
177 -277 37 -73 37 -75 19 -90 -25 -18 -71 -18 -166 0 -168 32 -727 76 -1135
91 -310 11 -984 -25 -1425 -76 -294 -34 -766 -113 -832 -140 -24 -10 -65 -56
-56 -63 5 -5 2158 -1071 2728 -1352 300 -147 588 -292 640 -322 99 -57 182
-113 177 -119 -2 -1 -66 -14 -143 -29 -1081 -198 -2247 -778 -3201 -1591 -182
-156 -521 -488 -695 -683 -689 -768 -1221 -1678 -1516 -2590 -207 -641 -384
-1835 -351 -2375 7 -115 24 -215 38 -215 3 0 46 62 96 137 137 208 313 458
464 657 75 99 141 187 148 195 9 13 13 8 23 -28 10 -39 6 -70 -44 -320 -59
-293 -89 -484 -105 -671 -49 -555 -38 -1248 29 -1800 100 -823 322 -1612 661
-2355 90 -199 275 -564 297 -589 21 -22 72 -50 80 -42 3 3 29 194 58 424 75
591 118 859 185 1151 20 86 23 92 37 75 31 -41 55 -113 103 -306 140 -564 376
-1143 689 -1693 611 -1071 1366 -1977 2383 -2858 152 -133 191 -155 204 -121
3 8 -33 122 -80 252 -215 599 -306 927 -387 1407 -21 126 -51 298 -65 380 -31
182 -55 379 -55 458 l0 59 32 -19 c20 -11 49 -48 78 -98 442 -756 521 -887
703 -1160 542 -813 1158 -1576 1752 -2170 396 -396 683 -635 1201 -1003 156
-111 212 -130 290 -97 78 32 450 293 649 456 895 729 1779 1751 2546 2947 158
245 447 724 584 965 43 76 89 147 103 157 26 21 62 27 62 10 0 -5 -18 -118
-39 -252 -22 -134 -56 -351 -76 -483 -65 -432 -164 -831 -328 -1330 -87 -263
-137 -434 -137 -465 0 -14 97 54 225 156 242 193 702 633 950 909 561 622 965
1171 1343 1825 256 444 522 1035 627 1395 26 88 69 234 95 325 56 190 108 332
120 325 11 -7 65 -208 89 -335 31 -158 95 -598 135 -925 20 -159 38 -309 41
-332 5 -31 12 -44 27 -48 26 -9 26 -9 93 115 350 643 638 1409 794 2108 212
951 253 1906 126 2927 -25 197 -93 623 -102 638 -2 4 -1 7 4 7 13 -1 170 -192
283 -344 58 -78 177 -249 265 -379 88 -130 163 -237 167 -237 27 -1 52 292 44
505 -11 257 -26 409 -72 743 -55 397 -98 636 -163 897 -201 808 -494 1464
-974 2178 -399 595 -780 1027 -1327 1507 -635 556 -1340 982 -2167 1310 -259
103 -414 150 -818 250 -203 51 -376 95 -383 99 -18 10 127 85 1628 841 1385
697 1902 962 1892 972 -13 11 -195 66 -292 86 -151 33 -549 89 -745 106 -99 9
-256 23 -350 32 -229 21 -887 30 -1132 15 -103 -6 -263 -16 -356 -21 -92 -6
-257 -21 -367 -35 -238 -29 -390 -41 -390 -30 0 15 51 98 210 340 131 200 250
395 250 411 0 9 -99 0 -285 -26z m-524 -3200 c163 -48 639 -252 994 -424 757
-369 1277 -722 1690 -1147 203 -209 292 -328 399 -538 l57 -111 -43 -44 c-24
-25 -86 -68 -138 -96 -85 -47 -180 -121 -180 -142 0 -4 31 -66 69 -137 451
-844 723 -1836 821 -2996 15 -171 23 -830 13 -969 l-8 -109 -75 164 c-85 186
-211 417 -307 564 -63 95 -66 99 -76 75 -6 -15 -13 -236 -18 -535 -10 -646
-29 -939 -90 -1371 -88 -628 -218 -1175 -422 -1779 -87 -256 -128 -356 -204
-508 -59 -116 -67 -127 -81 -114 -13 13 -15 60 -17 304 -1 309 -5 345 -71 736
-37 225 -47 259 -88 296 -24 23 -26 23 -26 5 0 -11 -23 -111 -51 -223 -257
-1038 -802 -2003 -1683 -2981 -169 -188 -673 -698 -708 -716 -15 -8 -39 -14
-53 -14 -24 0 -25 2 -19 43 4 23 18 80 31 127 48 168 54 199 79 440 31 284 37
573 16 658 -8 28 -17 52 -22 52 -13 0 -143 -264 -220 -444 -90 -214 -178 -393
-325 -666 -372 -688 -551 -985 -1019 -1695 -283 -429 -381 -572 -529 -769 -74
-97 -91 -116 -102 -105 -27 29 -359 509 -570 824 -655 977 -1134 1822 -1500
2647 -44 98 -82 174 -86 170 -4 -4 -14 -31 -23 -61 -19 -64 -21 -215 -6 -460
14 -220 32 -340 86 -564 26 -103 43 -191 40 -195 -31 -30 -336 233 -604 521
-887 953 -1467 1874 -1775 2822 -50 153 -111 368 -150 530 l-14 60 -22 -48
c-84 -191 -154 -642 -155 -1007 -1 -107 2 -221 7 -253 9 -68 -1 -73 -47 -24
-47 50 -220 490 -330 837 -317 1007 -469 2102 -437 3145 9 273 5 319 -28 339
-28 18 -243 -376 -366 -671 -33 -79 -63 -139 -66 -135 -32 32 -51 619 -30 877
13 159 79 677 117 925 83 540 272 1230 454 1660 34 80 126 277 205 438 l144
293 -38 42 c-23 24 -84 67 -146 102 -59 32 -122 76 -141 97 l-34 38 26 51
c123 243 260 426 488 654 377 375 847 698 1491 1025 363 183 928 426 1129 484
106 31 110 31 96 6 -14 -25 -105 -89 -265 -185 -313 -188 -670 -441 -950 -674
-346 -289 -835 -785 -951 -967 -103 -161 -117 -341 -39 -501 29 -59 59 -95
182 -218 213 -212 314 -272 478 -282 62 -4 99 -1 160 15 44 11 280 106 525
211 245 105 461 194 481 197 46 8 85 -12 169 -85 36 -32 219 -191 408 -355
189 -164 354 -315 367 -335 13 -20 123 -252 244 -517 272 -592 264 -548 124
-698 -431 -459 -853 -1159 -1111 -1842 -236 -624 -361 -1211 -403 -1893 -17
-279 -31 -248 179 -404 209 -156 420 -298 517 -349 97 -51 207 -72 349 -66
132 5 116 0 829 272 269 102 508 199 531 215 89 61 158 156 195 268 35 104 22
173 -45 252 -16 19 -391 386 -834 815 -443 429 -809 791 -815 804 -9 22 -2 31
77 107 213 204 688 575 735 575 14 0 356 -189 533 -295 268 -160 431 -215 637
-215 114 0 221 21 328 63 44 18 249 128 456 245 207 116 380 212 383 212 16 0
650 -502 787 -623 l54 -48 -90 -87 c-49 -48 -442 -428 -872 -845 l-783 -759 0
-67 c1 -170 70 -313 193 -394 76 -51 800 -335 1152 -453 138 -46 261 -61 365
-45 165 25 224 55 477 243 99 73 237 174 306 223 l126 90 1 116 c1 365 -95
994 -221 1454 -250 916 -662 1696 -1255 2378 -71 82 -139 161 -151 175 l-22
27 214 470 c288 632 285 627 365 693 36 30 221 187 413 350 191 164 362 303
380 311 56 23 112 9 327 -86 272 -121 576 -249 675 -286 95 -35 219 -46 308
-28 125 27 186 69 383 265 224 223 256 279 256 441 -1 140 -51 245 -205 429
-475 565 -1084 1073 -1843 1536 -96 59 -253 189 -213 177 9 -3 50 -15 90 -27z"/>
<path d="M5985 13987 c-72 -29 -156 -70 -188 -91 -65 -43 -65 -44 -18 -130
102 -193 373 -342 681 -377 130 -15 340 7 340 36 0 22 -38 119 -81 209 l-43
89 -110 72 c-282 182 -396 246 -440 245 -6 -1 -70 -24 -141 -53z"/>
<path d="M11325 14012 c-27 -10 -77 -36 -110 -58 -33 -23 -109 -69 -170 -103
-125 -71 -171 -111 -226 -195 -35 -52 -89 -194 -89 -230 0 -30 203 -52 334
-36 311 37 577 183 669 366 42 86 42 98 -2 136 -22 18 -63 42 -93 52 -29 10
-83 31 -119 46 -92 39 -134 43 -194 22z"/>
<path d="M4844 13594 c-59 -14 -62 -16 -145 -117 -263 -315 -430 -604 -533
-917 -37 -114 -81 -301 -91 -392 -7 -52 -5 -57 18 -72 13 -9 71 -24 128 -32
274 -40 511 -133 712 -277 303 -218 524 -491 682 -843 47 -103 57 -118 91
-128 19 -6 28 10 99 191 89 226 218 519 295 673 210 419 385 660 804 1110
l107 115 -37 9 c-40 10 -74 4 -259 -38 -270 -63 -550 -96 -664 -77 -120 19
-159 46 -351 241 -112 113 -199 211 -240 270 -119 172 -201 244 -321 281 -73
23 -205 24 -295 3z"/>
<path d="M12325 13591 c-47 -22 -78 -54 -214 -223 -196 -244 -451 -506 -536
-551 -37 -19 -55 -21 -215 -20 -174 0 -177 1 -445 58 -317 67 -353 72 -379 53
-17 -14 -12 -22 91 -139 230 -262 387 -461 510 -644 166 -250 250 -418 563
-1127 45 -104 85 -188 90 -188 4 0 38 48 75 106 171 266 402 538 596 700 223
186 560 355 884 444 44 12 86 29 93 38 20 27 14 100 -22 242 -103 408 -297
786 -576 1123 -44 54 -92 100 -111 109 -32 15 -228 38 -321 38 -24 0 -61 -9
-83 -19z"/>
<path d="M9860 11136 c-19 -6 -107 -56 -195 -110 -656 -401 -834 -507 -863
-512 -72 -14 -105 0 -354 153 -565 348 -769 466 -813 471 -42 4 -45 3 -144
-85 -125 -111 -175 -173 -166 -203 6 -19 526 -441 960 -780 191 -149 295 -186
500 -177 140 6 239 34 345 97 63 37 351 264 630 494 74 62 180 147 235 188 55
42 124 101 154 132 l54 54 -36 49 c-58 79 -239 244 -265 243 -4 -1 -23 -7 -42
-14z"/>
<path d="M8545 8194 c-346 -49 -423 -74 -1179 -377 -373 -149 -429 -175 -438
-197 -16 -41 -48 -215 -64 -350 -18 -158 -29 -443 -17 -494 8 -39 11 -40 113
-84 58 -24 323 -141 590 -259 498 -221 806 -352 1050 -447 l140 -54 57 15
c121 31 520 197 1213 503 234 103 475 209 537 235 61 26 114 54 117 62 37 95
-9 672 -67 841 l-22 64 -385 152 c-870 345 -1017 386 -1400 391 -118 2 -228 1
-245 -1z"/>
<path d="M2615 18154 c-16 -2 -64 -9 -105 -15 -428 -60 -747 -297 -941 -697
-156 -320 -238 -750 -256 -1337 -5 -192 4 -612 13 -602 3 2 35 89 73 193 352
968 602 1366 921 1465 84 26 197 37 510 49 423 16 678 72 1048 231 177 75 593
302 580 315 -8 8 -297 113 -446 163 -476 158 -831 229 -1177 236 -104 2 -203
2 -220 -1z"/>
<path d="M14190 18120 c-478 -49 -982 -233 -1054 -384 -37 -79 15 -120 189
-147 45 -7 92 -23 130 -44 136 -75 358 -162 525 -205 184 -47 248 -52 705 -60
492 -8 495 -9 640 -83 104 -53 245 -192 333 -326 158 -241 333 -674 488 -1203
26 -92 49 -166 51 -164 1 1 12 72 23 158 82 642 21 1196 -176 1593 -233 468
-629 745 -1209 846 -127 22 -505 33 -645 19z"/>
</g>
</svg>
